<svg width="55" height="55" viewBox="0 0 55 55" fill="none" xmlns="http://www.w3.org/2000/svg">
<g filter="url(#filter0_d_18_390)">
<path d="M41.7203 38.0062L27.8764 28.9522C27.559 28.7438 27.1486 28.7438 26.8248 28.9522L12.9808 38.0062C12.1857 38.5256 11.2015 37.6952 11.5766 36.8264L26.4721 2.26467C26.8055 1.4952 27.8988 1.49199 28.229 2.26466L43.1278 36.8232C43.4997 37.6952 42.5154 38.5256 41.7203 38.0062Z" fill="#FCD11F"/>
<path d="M42.1688 37.2179C40.9794 36.4389 39.7931 35.663 38.6004 34.8871C36.385 33.4412 34.1728 31.992 31.9574 30.5461C30.7487 29.7541 29.5561 28.927 28.3249 28.1703C27.7093 27.792 26.9239 27.8209 26.3179 28.2088C26.1512 28.3178 25.9845 28.4268 25.8145 28.539C25.0803 29.0167 24.3494 29.4977 23.6184 29.9722C21.4254 31.4085 19.2292 32.8416 17.0395 34.2747C15.5711 35.2366 14.0995 36.1952 12.6311 37.157C12.599 37.1763 12.5702 37.1987 12.5349 37.2211C12.5189 37.2308 12.5092 37.2404 12.4868 37.25C12.3554 37.3237 12.3874 37.234 12.5221 37.2468C12.4996 37.2436 12.4291 37.2692 12.4067 37.2788C12.3137 37.3205 12.6343 37.2756 12.4772 37.266C12.2784 37.2532 12.5285 37.2724 12.5253 37.2821L12.397 37.25C12.4387 37.2019 12.6054 37.3686 12.4515 37.266C12.3009 37.1666 12.4836 37.2532 12.4996 37.3141C12.4964 37.2981 12.4163 37.2372 12.4034 37.2243C12.2752 37.1346 12.4996 37.3911 12.4515 37.2981C12.4355 37.2692 12.4131 37.234 12.3938 37.2019C12.2976 37.0672 12.458 37.4135 12.4131 37.2532C12.381 37.1442 12.4259 37.1185 12.4067 37.3045C12.4099 37.2821 12.4034 37.2372 12.4034 37.2115C12.3906 37.0769 12.3457 37.4295 12.4067 37.2019C12.474 36.9358 12.3233 37.3814 12.3842 37.2436C12.4964 36.9903 12.6022 36.737 12.7144 36.4837C13.2947 35.134 13.8783 33.781 14.4586 32.4312C15.3787 30.2928 16.3021 28.1575 17.2222 26.019C18.293 23.5311 19.3671 21.0464 20.4379 18.5585C21.4767 16.1539 22.5123 13.7461 23.5478 11.3447C24.359 9.46277 25.1733 7.57759 25.9845 5.69561C26.3948 4.74019 26.8052 3.79119 27.2156 2.83577C27.2573 2.7428 27.3022 2.65944 27.3471 2.56967C27.4048 2.44784 27.2028 2.746 27.3374 2.59211C27.4753 2.44142 27.1643 2.70111 27.3374 2.59852C27.1515 2.61776 27.4977 2.50234 27.3374 2.59852C27.5074 2.58249 27.2765 2.5889 27.2797 2.59852C27.2797 2.59211 27.4529 2.59211 27.4529 2.59852C27.4144 2.59211 27.3759 2.59211 27.3374 2.5857C27.3759 2.59211 27.4144 2.60493 27.4497 2.61455C27.4144 2.59852 27.3759 2.5857 27.3406 2.56966C27.3759 2.5857 27.408 2.60493 27.4432 2.62737C27.4112 2.60173 27.3791 2.57608 27.3471 2.55043C27.3791 2.57608 27.408 2.60493 27.4336 2.63699C27.408 2.60493 27.3887 2.57287 27.3631 2.54081C27.3855 2.57608 27.4112 2.61455 27.4304 2.65302C27.5971 2.97363 27.4497 2.6915 27.4593 2.71394C27.4593 2.71394 27.4593 2.71394 27.4625 2.71715C27.4657 2.72677 27.4689 2.72997 27.4721 2.73959C27.5811 2.98325 27.6837 3.23333 27.7927 3.47699C28.373 4.82675 28.9533 6.17652 29.54 7.52629C30.4538 9.64552 31.3707 11.768 32.2812 13.8904C33.3521 16.3783 34.4229 18.8598 35.4937 21.3478C36.5293 23.7555 37.5681 26.1665 38.6069 28.5711C39.4244 30.4659 40.242 32.3607 41.0563 34.2587C41.4699 35.2173 41.8835 36.1824 42.2971 37.141C42.3163 37.1859 42.3356 37.2308 42.3516 37.2724C42.2073 36.9614 42.2907 37.1153 42.3131 37.2019C42.3195 37.2276 42.3227 37.2756 42.3323 37.2981C42.265 37.1538 42.3099 37.1282 42.3131 37.2596C42.3163 37.4359 42.3323 37.0352 42.3163 37.2115C42.3131 37.2404 42.2586 37.3911 42.3163 37.2308C42.3836 37.0416 42.3003 37.2404 42.3003 37.2404C42.2939 37.2532 42.2843 37.2628 42.2746 37.2788C42.2201 37.359 42.2426 37.3301 42.342 37.1923C42.3355 37.1923 42.2554 37.2789 42.249 37.2853C42.1592 37.3879 42.3163 37.2115 42.3355 37.2179C42.3291 37.2179 42.2297 37.2788 42.2201 37.2821C42.0791 37.3782 42.4349 37.2019 42.2714 37.2564C42.156 37.2949 42.1496 37.2243 42.3259 37.2596C42.3035 37.2564 42.2522 37.2628 42.233 37.2628C42.0662 37.2756 42.4381 37.3205 42.2778 37.2692C42.1336 37.2211 42.2297 37.2083 42.3099 37.2949C42.2778 37.2628 42.2041 37.2404 42.1688 37.2179C41.7649 36.9679 41.1493 37.1346 40.9313 37.5578C40.7004 38.0066 40.8415 38.526 41.2711 38.7953C42.3003 39.4333 43.711 38.8819 44.0412 37.7117C44.1791 37.2211 44.0829 36.7723 43.8873 36.3202C43.7655 36.0317 43.6372 35.7431 43.5154 35.4546C42.8966 34.015 42.2746 32.5787 41.6559 31.1392C40.7069 28.9334 39.7579 26.734 38.8088 24.5282C37.722 22.005 36.6319 19.4786 35.545 16.9554C34.5127 14.5573 33.4771 12.1559 32.4447 9.75773C31.656 7.93026 30.8706 6.09957 30.0819 4.2721C29.7324 3.46096 29.3925 2.64661 29.0335 1.83868C28.4051 0.421583 26.2762 0.466467 25.6639 1.86753C25.542 2.14967 25.4202 2.4318 25.2952 2.71714C24.6796 4.14065 24.0672 5.56736 23.4517 6.99087C22.5059 9.18704 21.5568 11.3864 20.6111 13.5826C19.5242 16.1058 18.4373 18.629 17.3505 21.1522C16.3149 23.5536 15.2793 25.9613 14.2437 28.3627C13.4486 30.203 12.6567 32.0465 11.8648 33.8836C11.5122 34.7044 11.1531 35.5251 10.8036 36.3491C10.5375 36.9743 10.5054 37.6604 10.919 38.2407C11.4961 39.0486 12.5862 39.3243 13.4454 38.7857C13.859 38.526 14.263 38.2503 14.6702 37.9842C16.706 36.6537 18.7387 35.3263 20.7714 33.9926C22.679 32.7454 24.5866 31.4983 26.4974 30.2479C26.709 30.1068 26.9206 29.9722 27.1322 29.8311C27.1739 29.8022 27.2188 29.7702 27.2637 29.7445C27.2861 29.7285 27.3118 29.7157 27.331 29.7028C27.4977 29.5874 27.1483 29.7509 27.3406 29.6996C27.5266 29.6483 27.2028 29.69 27.3214 29.6996C27.4849 29.7157 27.3439 29.6451 27.3022 29.6868C27.3406 29.6932 27.3823 29.7028 27.4208 29.7157C27.299 29.6644 27.2861 29.658 27.3727 29.6996C27.7222 29.9401 28.0877 30.1645 28.4435 30.3986C30.4249 31.6938 32.4063 32.9891 34.3844 34.2812C36.353 35.57 38.3247 36.8556 40.2933 38.1445C40.6203 38.3561 40.9441 38.5709 41.2711 38.7825C41.6687 39.0454 42.2971 38.8595 42.5087 38.4427C42.7459 37.9938 42.5952 37.4969 42.1688 37.2179Z" fill="#FCD11F"/>
</g>
<defs>
<filter id="filter0_d_18_390" x="10.6055" y="0.796143" width="42.5005" height="46.2681" filterUnits="userSpaceOnUse" color-interpolation-filters="sRGB">
<feFlood flood-opacity="0" result="BackgroundImageFix"/>
<feColorMatrix in="SourceAlpha" type="matrix" values="0 0 0 0 0 0 0 0 0 0 0 0 0 0 0 0 0 0 127 0" result="hardAlpha"/>
<feOffset dx="5" dy="4"/>
<feGaussianBlur stdDeviation="2"/>
<feComposite in2="hardAlpha" operator="out"/>
<feColorMatrix type="matrix" values="0 0 0 0 0 0 0 0 0 0 0 0 0 0 0 0 0 0 0.5 0"/>
<feBlend mode="normal" in2="BackgroundImageFix" result="effect1_dropShadow_18_390"/>
<feBlend mode="normal" in="SourceGraphic" in2="effect1_dropShadow_18_390" result="shape"/>
</filter>
</defs>
</svg>
